<svg width="70" height="70" viewBox="0 0 70 70" fill="none" xmlns="http://www.w3.org/2000/svg">
<circle cx="35" cy="35" r="35" fill="#EBF1FF"/>
<path d="M47.7273 17L38.6364 25.1V44.9L47.7273 36.8V17ZM25 22.4C21.4545 22.4 17.6364 23.12 15 25.1V51.488C15 51.938 15.4545 52.388 15.9091 52.388C16.0909 52.388 16.1818 52.262 16.3636 52.262C18.8182 51.092 22.3636 50.3 25 50.3C28.5455 50.3 32.3636 51.02 35 53C37.4545 51.47 41.9091 50.3 45 50.3C48 50.3 51.0909 50.858 53.6364 52.208C53.8182 52.298 53.9091 52.262 54.0909 52.262C54.5455 52.262 55 51.812 55 51.362V25.1C53.9091 24.29 52.7273 23.75 51.3636 23.3V47.6C49.3636 46.97 47.1818 46.7 45 46.7C41.9091 46.7 37.4545 47.87 35 49.4V25.1C32.3636 23.12 28.5455 22.4 25 22.4Z" fill="#003B7E"/>
</svg>
