<svg width="25" height="25" viewBox="0 0 25 25" fill="none" xmlns="http://www.w3.org/2000/svg">
<path d="M9.78125 9.78125L15.2188 15.2188M15.2188 9.78125L9.78125 15.2188M23.375 12.5C23.375 13.9281 23.0937 15.3423 22.5472 16.6617C22.0007 17.9811 21.1996 19.1799 20.1898 20.1898C19.1799 21.1996 17.9811 22.0007 16.6617 22.5472C15.3423 23.0937 13.9281 23.375 12.5 23.375C11.0719 23.375 9.65773 23.0937 8.33832 22.5472C7.0189 22.0007 5.82005 21.1996 4.81021 20.1898C3.80038 19.1799 2.99933 17.9811 2.45281 16.6617C1.90629 15.3423 1.625 13.9281 1.625 12.5C1.625 9.61577 2.77076 6.84967 4.81021 4.81021C6.84967 2.77076 9.61577 1.625 12.5 1.625C15.3842 1.625 18.1503 2.77076 20.1898 4.81021C22.2292 6.84967 23.375 9.61577 23.375 12.5Z" stroke="currentColor" stroke-width="1.5" stroke-linecap="round" stroke-linejoin="round"/>
</svg>
