<svg width="22" height="20" viewBox="0 0 22 20" fill="none" xmlns="http://www.w3.org/2000/svg">
<path d="M5.27 15.05C5.72 15.58 6 16.25 6 17C6 18.66 4.66 20 3 20C1.34 20 0 18.66 0 17C0 15.34 1.34 14 3 14C3.18 14 3.36 14 3.53 14.05L6.6 8.69L4.86 7.7L8.95 6.58L10.07 10.67L8.33 9.68L5.27 15.05ZM19 14C17.7 14 16.6 14.84 16.18 16H10V14L7 17L10 20V18H16.18C16.6 19.16 17.7 20 19 20C20.66 20 22 18.66 22 17C22 15.34 20.66 14 19 14ZM11 6C11.18 6 11.36 6 11.53 5.95L14.6 11.31L12.86 12.3L16.95 13.42L18.07 9.33L16.33 10.32L13.27 4.95C13.72 4.42 14 3.75 14 3C14 1.34 12.66 0 11 0C9.34 0 8 1.34 8 3C8 4.66 9.34 6 11 6Z" fill="#003B7E"/>
</svg>
