<svg width="20" height="20" viewBox="0 0 20 20" fill="none" xmlns="http://www.w3.org/2000/svg">
<path d="M1.81818 3.63636V18.1818H18.1818V20H1.81818C1.33597 20 0.873508 19.8084 0.532533 19.4675C0.191558 19.1265 0 18.664 0 18.1818V3.63636H1.81818ZM13.6364 6.36364H18.6364L13.6364 1.36364V6.36364ZM5.45455 0H14.5455L20 5.45455V14.5455C20 15.0277 19.8084 15.4901 19.4675 15.8311C19.1265 16.1721 18.664 16.3636 18.1818 16.3636H5.45455C4.44545 16.3636 3.63636 15.5455 3.63636 14.5455V1.81818C3.63636 1.33597 3.82792 0.873508 4.1689 0.532533C4.50987 0.191558 4.97233 0 5.45455 0ZM5.45455 1.81818V14.5455H18.1818V8.18182H11.8182V1.81818H5.45455Z" fill="#003B7E"/>
</svg>
