<svg width="16" height="12" viewBox="0 0 16 12" fill="none" xmlns="http://www.w3.org/2000/svg">
<path classname="stroke-[#ffa500]" d="M14.5 2.5V9.5C14.5 9.89782 14.342 10.2794 14.0607 10.5607C13.7794 10.842 13.3978 11 13 11H3C2.60218 11 2.22064 10.842 1.93934 10.5607C1.65804 10.2794 1.5 9.89782 1.5 9.5V2.5M14.5 2.5C14.5 2.10218 14.342 1.72064 14.0607 1.43934C13.7794 1.15804 13.3978 1 13 1H3C2.60218 1 2.22064 1.15804 1.93934 1.43934C1.65804 1.72064 1.5 2.10218 1.5 2.5M14.5 2.5V2.662C14.5 2.9181 14.4345 3.16994 14.3096 3.39353C14.1848 3.61712 14.0047 3.80502 13.7867 3.93933L8.78667 7.016C8.55014 7.16169 8.2778 7.23883 8 7.23883C7.7222 7.23883 7.44986 7.16169 7.21333 7.016L2.21333 3.94C1.99528 3.80569 1.81525 3.61779 1.69038 3.3942C1.56551 3.1706 1.49997 2.91876 1.5 2.66267V2.5" stroke="#FF6D00" stroke-width="1.5" stroke-linecap="round" stroke-linejoin="round"/>
</svg>
