<svg width="20" height="20" viewBox="0 0 20 20" fill="none" xmlns="http://www.w3.org/2000/svg">
<path d="M13.1751 16.8161C12.9584 16.8161 12.7334 16.8078 12.4917 16.7828C12.0584 16.7494 11.5667 16.6661 11.0584 16.5411L9.65839 16.2078C5.81673 15.2994 4.55839 13.2661 5.45839 9.43278L6.27506 5.94111C6.45839 5.14944 6.67506 4.50778 6.94173 3.97444C8.37506 1.01611 11.1167 1.28278 13.0667 1.74111L14.4584 2.06611C16.4084 2.52444 17.6417 3.24944 18.3334 4.35778C19.0167 5.46611 19.1251 6.89111 18.6667 8.84111L17.8501 12.3244C17.1334 15.3744 15.6417 16.8161 13.1751 16.8161ZM10.9334 2.70778C9.54173 2.70778 8.65839 3.28278 8.06673 4.51611C7.85006 4.96611 7.65839 5.52444 7.49173 6.22444L6.67506 9.71611C5.93339 12.8661 6.79173 14.2411 9.94173 14.9911L11.3417 15.3244C11.7917 15.4328 12.2167 15.4994 12.6001 15.5328C14.8667 15.7578 15.9917 14.7661 16.6251 12.0411L17.4417 8.55778C17.8167 6.94944 17.7667 5.82444 17.2667 5.01611C16.7667 4.20778 15.7834 3.65778 14.1667 3.28278L12.7751 2.95778C12.0834 2.79111 11.4667 2.70778 10.9334 2.70778Z" fill="currentColor"/>
<path d="M6.94167 18.5424C4.8 18.5424 3.43334 17.259 2.55834 14.5507L1.49167 11.259C0.308336 7.59238 1.36667 5.52571 5.01667 4.34238L6.33334 3.91738C6.76667 3.78405 7.09167 3.69238 7.38334 3.64238C7.625 3.59238 7.85834 3.68405 8 3.87571C8.14167 4.06738 8.16667 4.31738 8.06667 4.53405C7.85 4.97571 7.65834 5.53405 7.5 6.23405L6.68334 9.72571C5.94167 12.8757 6.8 14.2507 9.95 15.0007L11.35 15.334C11.8 15.4424 12.225 15.509 12.6083 15.5424C12.875 15.5674 13.0917 15.7507 13.1667 16.009C13.2333 16.2674 13.1333 16.534 12.9167 16.684C12.3667 17.059 11.675 17.3757 10.8 17.659L9.48334 18.0924C8.525 18.3924 7.69167 18.5424 6.94167 18.5424ZM6.48334 5.18405L5.40834 5.53405C2.43334 6.49238 1.725 7.89238 2.68334 10.8757L3.75 14.1674C4.71667 17.1424 6.11667 17.859 9.09167 16.9007L10.4083 16.4674C10.4583 16.4507 10.5 16.434 10.55 16.4174L9.66667 16.209C5.825 15.3007 4.56667 13.2674 5.46667 9.43405L6.28334 5.94238C6.34167 5.67571 6.40834 5.41738 6.48334 5.18405Z" fill="currentColor"/>
<path d="M14.575 8.75912C14.525 8.75912 14.475 8.75079 14.4167 8.74246L10.375 7.71746C10.0417 7.63412 9.84168 7.29246 9.92502 6.95912C10.0084 6.62579 10.35 6.42579 10.6834 6.50912L14.725 7.53412C15.0584 7.61746 15.2584 7.95912 15.175 8.29246C15.1084 8.56746 14.85 8.75912 14.575 8.75912Z" fill="currentColor"/>
<path d="M12.1333 11.5754C12.0833 11.5754 12.0333 11.5671 11.9749 11.5587L9.54994 10.9421C9.21661 10.8587 9.01661 10.5171 9.09994 10.1837C9.18328 9.8504 9.52494 9.6504 9.85828 9.73373L12.2833 10.3504C12.6166 10.4337 12.8166 10.7754 12.7333 11.1087C12.6666 11.3921 12.4166 11.5754 12.1333 11.5754Z" fill="currentColor"/>
</svg>
