<svg width="65" height="61" viewBox="0 0 65 61" fill="none" xmlns="http://www.w3.org/2000/svg">
<path d="M24.7396 60.5249C30.4225 58.2773 29.1774 52.0803 26.304 48.163C23.4625 44.1495 19.5355 41.3881 15.5766 38.7231C12.767 36.925 10.181 34.6774 8.10574 32.1087C7.21179 31.0491 5.39197 29.0905 7.24372 28.7052C9.1274 28.3199 12.3839 30.1822 14.0441 30.8886C16.9494 32.1087 19.8229 33.5215 22.5047 35.1911L25.7293 29.7327C20.7487 26.4255 14.3634 23.5036 8.42501 22.6366C5.04077 22.1229 1.46498 22.8293 0.315616 26.5218C-0.706039 29.7005 0.922225 32.9114 2.77398 35.4159C7.14794 41.2918 13.9483 44.1173 19.0247 49.1905C20.1102 50.2501 21.4192 51.5023 22.0577 52.9793C22.7282 54.3921 22.5686 54.4884 21.068 54.4884C17.1091 54.4884 12.1604 51.3739 8.93584 49.319L5.71124 54.7774C10.596 57.7956 18.7693 62.5156 24.7396 60.5249ZM54.1441 17.1139L36.0416 35.3196H28.7304V27.9667L46.8329 9.72893L54.1441 17.1139ZM64.9992 14.6095C64.9673 15.5727 63.9775 16.5681 62.9559 17.5635L54.9103 25.687L52.1327 22.8935L60.4337 14.5773L58.55 12.6829L56.4109 14.8342L49.0997 7.48133L55.9639 0.577956C56.7302 -0.192652 57.9753 -0.192652 58.7096 0.577956L63.2751 5.1695C64.0414 5.87589 64.0414 7.16024 63.2751 7.93085C62.6047 8.60513 61.9662 9.2473 61.9662 9.88948C61.9023 10.5317 62.5408 11.238 63.1794 11.7839C64.1052 12.7472 65.0311 13.6462 64.9992 14.6095Z" fill="#003B7E"/>
</svg>
